<mxfile host="app.diagrams.net" modified="2021-06-30T09:14:52.447Z" agent="5.0 (Windows NT 10.0; Win64; x64) AppleWebKit/537.36 (KHTML, like Gecko) Chrome/75.0.3770.142 Safari/537.36" etag="GNkK5Z3OThftMReo4Lz3" version="14.8.2" type="github">
  <diagram id="kOJuyeo2aSySZOu3wLHm" name="Page-1">
    <mxGraphModel dx="1422" dy="762" grid="1" gridSize="10" guides="1" tooltips="1" connect="1" arrows="1" fold="1" page="1" pageScale="1" pageWidth="827" pageHeight="1169" background="none" math="0" shadow="0">
      <root>
        <mxCell id="0" />
        <mxCell id="1" parent="0" />
        <mxCell id="6V-X-tAMPdsCcbsQMixR-13" value="&lt;font style=&quot;font-size: 20px&quot;&gt;A : [a, a&lt;sub&gt;1&lt;/sub&gt;, a&lt;sub&gt;2&lt;/sub&gt;, a&lt;sub&gt;3&lt;/sub&gt;, b, b&lt;sub&gt;1&lt;/sub&gt;, b&lt;sub&gt;2&lt;/sub&gt;, b&lt;sub&gt;3&lt;/sub&gt;, b&lt;sub&gt;4&lt;/sub&gt;, c, c&lt;sub&gt;1&lt;/sub&gt;, c&lt;sub&gt;2&lt;/sub&gt;]&lt;/font&gt;" style="text;whiteSpace=wrap;html=1;fontFamily=Times New Roman;" vertex="1" parent="1">
          <mxGeometry x="20" y="140" width="460" height="60" as="geometry" />
        </mxCell>
        <mxCell id="6V-X-tAMPdsCcbsQMixR-16" value="&lt;font style=&quot;font-size: 20px&quot;&gt;B : {a: [a&lt;sub&gt;1&lt;/sub&gt;, a&lt;sub&gt;2&lt;/sub&gt;, a&lt;sub&gt;3&lt;/sub&gt;], b: [b&lt;sub&gt;1&lt;/sub&gt;, b&lt;sub&gt;2&lt;/sub&gt;, b&lt;sub&gt;3&lt;/sub&gt;], c: [&lt;font color=&quot;#ff3333&quot; style=&quot;font-size: 20px&quot;&gt;a&lt;/font&gt;, c&lt;sub&gt;1&lt;/sub&gt;, c&lt;sub&gt;2&lt;/sub&gt;]}&lt;/font&gt;" style="text;whiteSpace=wrap;html=1;fontFamily=Times New Roman;" vertex="1" parent="1">
          <mxGeometry x="20" y="200" width="430" height="30" as="geometry" />
        </mxCell>
        <mxCell id="6V-X-tAMPdsCcbsQMixR-17" value="&lt;font style=&quot;font-size: 20px&quot;&gt;D : {d: [d&lt;sub&gt;1&lt;/sub&gt;, d&lt;sub&gt;2&lt;/sub&gt;, d&lt;sub&gt;3&lt;/sub&gt;, &lt;font color=&quot;#ff3333&quot;&gt;a&lt;sub&gt;1&lt;/sub&gt;&lt;/font&gt;], e: [e&lt;sub&gt;1&lt;/sub&gt;, e&lt;sub&gt;2&lt;/sub&gt;, &lt;font color=&quot;#ff3333&quot;&gt;a&lt;sub&gt;1&lt;/sub&gt;&lt;/font&gt;], f: [f&lt;sub&gt;1&lt;/sub&gt;, f&lt;sub&gt;2&lt;/sub&gt;]}&lt;/font&gt;" style="text;whiteSpace=wrap;html=1;fontFamily=Times New Roman;" vertex="1" parent="1">
          <mxGeometry x="20" y="330" width="470" height="30" as="geometry" />
        </mxCell>
        <mxCell id="6V-X-tAMPdsCcbsQMixR-19" value="&lt;font style=&quot;font-size: 20px&quot;&gt;C : [&lt;font color=&quot;#ff3333&quot;&gt;a&lt;sub&gt;1&lt;/sub&gt;&lt;/font&gt;, d, d&lt;sub&gt;1&lt;/sub&gt;, d&lt;sub&gt;2&lt;/sub&gt;, d&lt;sub&gt;3&lt;/sub&gt;, e, e&lt;sub&gt;1&lt;/sub&gt;, e&lt;sub&gt;2&lt;/sub&gt;, f, f&lt;sub&gt;1&lt;/sub&gt;, f&lt;sub&gt;2&lt;/sub&gt;]&lt;/font&gt;" style="text;whiteSpace=wrap;html=1;fontFamily=Times New Roman;" vertex="1" parent="1">
          <mxGeometry x="20" y="270" width="350" height="30" as="geometry" />
        </mxCell>
      </root>
    </mxGraphModel>
  </diagram>
</mxfile>
